<?xml version="1.0" standalone="no"?>
<!DOCTYPE svg PUBLIC "-//W3C//DTD SVG 20010904//EN"
 "http://www.w3.org/TR/2001/REC-SVG-20010904/DTD/svg10.dtd">
<svg version="1.0" xmlns="http://www.w3.org/2000/svg"
 width="957.000000pt" height="167.000000pt" viewBox="0 0 957.000000 167.000000"
 preserveAspectRatio="xMidYMid meet">

<g transform="translate(0.000000,167.000000) scale(0.100000,-0.100000)"
fill="#000000" stroke="none">
<path d="M1861 787 c-105 -286 -138 -360 -166 -371 -8 -3 -15 -10 -15 -16 0
-6 38 -10 100 -10 60 0 100 4 100 10 0 6 -6 10 -13 10 -24 0 -47 35 -46 71 0
19 8 57 18 84 l18 50 115 3 115 3 16 -61 c9 -33 17 -73 17 -88 0 -29 -26 -62
-48 -62 -7 0 -12 -4 -12 -10 0 -6 43 -10 110 -10 61 0 110 2 110 4 0 3 -13 17
-28 33 -27 27 -48 88 -192 571 l-22 72 -36 0 -37 0 -104 -283z m168 36 c23
-78 41 -146 41 -152 0 -7 -35 -11 -101 -11 -92 0 -101 2 -94 18 4 9 24 67 45
127 51 145 60 169 64 164 2 -2 23 -68 45 -146z"/>
<path d="M3407 1054 c-66 -20 -128 -83 -157 -159 -20 -50 -24 -80 -24 -175 -1
-131 15 -192 65 -253 48 -59 100 -81 189 -81 88 0 137 21 192 82 56 62 73 125
73 272 0 110 -3 131 -24 178 -55 123 -180 177 -314 136z m153 -46 c74 -50 114
-211 92 -372 -19 -144 -73 -216 -160 -216 -66 0 -104 26 -138 97 -28 56 -29
63 -29 213 0 145 2 158 25 205 45 91 137 122 210 73z"/>
<path d="M3998 1055 c-113 -37 -157 -151 -97 -252 19 -30 46 -50 172 -124 32
-19 67 -48 78 -65 37 -61 17 -158 -38 -183 -13 -6 -46 -11 -73 -11 -58 0 -105
33 -118 83 -6 22 -15 33 -31 35 -21 3 -22 1 -19 -64 3 -65 4 -68 33 -77 17 -5
73 -9 125 -10 85 -2 100 1 139 23 57 32 81 78 81 153 0 95 -31 134 -166 208
-98 54 -124 86 -124 151 0 41 5 54 29 79 24 24 38 29 76 29 63 0 100 -21 121
-70 11 -25 24 -40 36 -40 15 0 18 9 18 64 0 74 2 72 -120 81 -52 3 -89 0 -122
-10z"/>
<path d="M5601 787 c-105 -286 -138 -360 -166 -371 -8 -3 -15 -10 -15 -16 0
-6 38 -10 100 -10 60 0 100 4 100 10 0 6 -6 10 -13 10 -24 0 -47 35 -46 71 0
19 8 57 18 84 l18 50 115 3 115 3 16 -61 c9 -33 17 -73 17 -88 0 -29 -26 -62
-48 -62 -7 0 -12 -4 -12 -10 0 -6 43 -10 110 -10 61 0 110 2 110 4 0 3 -13 17
-28 33 -27 27 -48 88 -192 571 l-22 72 -36 0 -37 0 -104 -283z m168 36 c23
-78 41 -146 41 -152 0 -7 -35 -11 -101 -11 -92 0 -101 2 -94 18 4 9 24 67 45
127 51 145 60 169 64 164 2 -2 23 -68 45 -146z"/>
<path d="M2240 1051 c0 -5 8 -12 18 -15 31 -10 47 -53 138 -359 l88 -298 30 3
c30 3 31 5 141 298 109 293 133 346 161 357 37 14 5 23 -86 23 -60 0 -100 -4
-100 -10 0 -5 6 -10 13 -10 29 0 50 -38 44 -78 -8 -62 -149 -465 -157 -450
-15 26 -130 444 -130 469 0 26 27 59 48 59 7 0 12 5 12 10 0 6 -43 10 -110 10
-61 0 -110 -4 -110 -9z"/>
<path d="M2890 1050 c0 -5 5 -10 10 -10 6 0 19 -9 30 -20 19 -19 20 -33 20
-295 0 -262 -1 -276 -20 -295 -11 -11 -24 -20 -30 -20 -5 0 -10 -4 -10 -10 0
-6 40 -10 100 -10 94 0 126 10 80 25 -11 3 -23 18 -27 33 -5 15 -8 140 -8 277
0 138 3 262 8 277 4 15 16 30 27 33 46 15 14 25 -80 25 -60 0 -100 -4 -100
-10z"/>
<path d="M4370 1051 c0 -6 5 -11 10 -11 6 0 19 -9 30 -20 19 -19 20 -33 20
-295 0 -262 -1 -276 -20 -295 -11 -11 -24 -20 -30 -20 -5 0 -10 -4 -10 -10 0
-6 42 -10 105 -10 58 0 105 3 105 8 0 4 -13 14 -29 23 -34 20 -41 49 -41 170
l0 89 63 0 c175 1 257 65 257 202 0 79 -25 123 -85 153 -34 16 -66 20 -207 23
-119 3 -168 1 -168 -7z m332 -68 c29 -29 33 -40 36 -100 5 -115 -44 -163 -168
-163 l-60 0 0 151 0 151 80 -4 c74 -3 82 -5 112 -35z"/>
<path d="M4940 1050 c0 -5 5 -10 10 -10 6 0 19 -9 30 -20 19 -19 20 -33 20
-295 0 -262 -1 -276 -20 -295 -11 -11 -24 -20 -30 -20 -5 0 -10 -4 -10 -10 0
-6 80 -10 219 -10 l220 0 3 95 c3 92 2 95 -19 95 -16 0 -23 -8 -28 -33 -10
-46 -41 -103 -60 -111 -9 -3 -57 -6 -106 -6 l-89 0 0 264 c0 145 3 278 6 296
4 20 16 36 30 42 45 21 24 28 -76 28 -60 0 -100 -4 -100 -10z"/>
<path d="M6100 1051 c0 -5 9 -13 21 -16 11 -4 24 -18 30 -32 5 -13 9 -138 9
-278 0 -140 -4 -265 -9 -278 -6 -14 -19 -28 -30 -32 -45 -14 -17 -25 64 -25
80 0 109 11 66 25 -11 3 -22 13 -25 22 -11 29 -19 519 -9 508 6 -5 83 -133
172 -282 154 -259 163 -273 191 -273 l30 0 0 309 0 310 25 19 c14 11 25 23 25
26 0 3 -38 6 -85 6 -50 0 -85 -4 -85 -10 0 -5 5 -10 10 -10 6 0 19 -9 30 -20
19 -19 20 -33 20 -247 l0 -228 -33 60 c-18 33 -86 149 -151 258 l-119 197 -73
0 c-41 0 -74 -4 -74 -9z"/>
<path d="M6780 1050 c0 -5 5 -10 10 -10 6 0 19 -9 30 -20 19 -19 20 -33 20
-295 0 -262 -1 -276 -20 -295 -11 -11 -24 -20 -30 -20 -5 0 -10 -4 -10 -10 0
-6 82 -10 225 -10 l225 0 0 48 c0 26 3 64 6 85 6 34 5 37 -18 37 -21 0 -27 -7
-37 -42 -24 -79 -40 -88 -158 -88 l-103 0 0 145 0 146 78 -3 c76 -3 77 -3 92
-35 8 -18 23 -33 33 -33 15 0 17 11 17 90 0 79 -2 90 -17 90 -10 0 -25 -15
-33 -33 -15 -32 -16 -32 -92 -35 l-78 -3 0 131 0 130 103 0 c95 0 105 -2 125
-23 12 -13 27 -37 33 -55 7 -21 18 -32 30 -32 17 0 19 8 19 75 l0 75 -225 0
c-143 0 -225 -4 -225 -10z"/>
<path d="M7320 975 c0 -82 1 -85 23 -85 19 0 26 8 35 39 7 21 21 50 33 65 18
22 28 26 75 26 l54 0 0 -285 c0 -272 -1 -286 -20 -305 -11 -11 -24 -20 -30
-20 -5 0 -10 -4 -10 -10 0 -6 42 -10 105 -10 63 0 105 4 105 10 0 6 -4 10 -10
10 -5 0 -19 9 -30 20 -19 19 -20 33 -20 305 l0 285 54 0 c48 0 57 -3 80 -30
14 -17 28 -46 32 -65 5 -28 11 -35 30 -35 23 0 24 2 24 85 l0 85 -265 0 -265
0 0 -85z"/>
</g>
</svg>
